<?xml version="1.0" encoding="UTF-8"?><svg width="1e3" height="1e3" version="1.1" viewBox="0 0 264.583 264.583" xmlns="http://www.w3.org/2000/svg" xmlns:cc="http://creativecommons.org/ns#" xmlns:dc="http://purl.org/dc/elements/1.1/" xmlns:rdf="http://www.w3.org/1999/02/22-rdf-syntax-ns#"><metadata><rdf:RDF><cc:Work rdf:about=""><dc:format>image/svg+xml</dc:format><dc:type rdf:resource="http://purl.org/dc/dcmitype/StillImage"/><dc:title/></cc:Work></rdf:RDF></metadata><g><path transform="scale(.264583)" d="m0 400 125 100h225v50l137.5 137.5v-237.5l-50-50h-87.5zm562.5 0-50 50v237.5l137.5-137.5v-50h225l125-100h-350z" /><path transform="scale(.264583)" d="m150 525 300 300h100l300-300h-150l-200 200-200-200h-25z" /><path transform="scale(.264583)" d="m150 287.5 50 25h25v75l31.25-31.25v-37.5h37.5v37.5h-25l-31.25 31.25h87.5v-25l68.75-69.4629v88.5371l-40.625-41.0449v37.498l9.375 9.47266h62.5v-100h-62.8848l-37.1152 37.5v-25l-12.5-12.5h-112.5zm325 0v56.25l-43.75-54.6875v43.75l43.75 54.6875h100l43.75-54.6875v-43.75l-43.75 54.6875v-43.75l-12.5-12.5h-62.5zm150 0v100h31.25v-55l45.832 55h20.834l52.084-62.5 10.416-12.5h14.584l50-25h-80.209l-57.291 68.75-57.291-68.75h-5.20898zm-118.75 31.25h37.5v37.5h-37.5z" /></g><style>path{fill: white;}</style></svg>