<?xml version="1.0" encoding="UTF-8"?>
<svg width="190.447" height="94.9341" version="1.1" viewBox="0 0 50.3891 25.118" xmlns="http://www.w3.org/2000/svg" xmlns:cc="http://creativecommons.org/ns#" xmlns:dc="http://purl.org/dc/elements/1.1/" xmlns:rdf="http://www.w3.org/1999/02/22-rdf-syntax-ns#"><metadata><rdf:RDF><cc:Work rdf:about=""><dc:format>image/svg+xml</dc:format><dc:type rdf:resource="http://purl.org/dc/dcmitype/StillImage"/><dc:title/></cc:Work></rdf:RDF></metadata><g transform="translate(-51.003 -30.884)" shape-rendering="auto"><path transform="matrix(.264583 0 0 .264583 47.2612 25.5923)" d="m152.633 20-5.18945 8.98828-20.7559 35.9492 11.5469 20 37.4922-64.9375z" color="#000000" color-rendering="auto" dominant-baseline="auto" fill="#2b2b2b" image-rendering="auto" solid-color="#000000" stop-color="#000000" style="font-feature-settings:normal;font-variant-alternates:normal;font-variant-caps:normal;font-variant-east-asian:normal;font-variant-ligatures:normal;font-variant-numeric:normal;font-variant-position:normal;font-variation-settings:normal;inline-size:0;isolation:auto;mix-blend-mode:normal;shape-margin:0;shape-padding:0;text-decoration-color:#000000;text-decoration-line:none;text-decoration-style:solid;text-indent:0;text-orientation:mixed;text-transform:none;white-space:normal"/><path d="m71.6265 40.1445 9.15448 15.8574h6.1097l14.5014-25.1178h-6.1092l-11.4474 19.8272-7.62698-13.2132c-2.3611-4.08951-6.73501-6.61335-11.4571-6.61335h-13.7485l3.05511 5.29115 10.6934-6.8e-5c2.84004-6.7e-5 5.45498 1.50914 6.875 3.96868z" color="#000000" color-rendering="auto" dominant-baseline="auto" fill="#0061c0" fill-rule="evenodd" image-rendering="auto" solid-color="#000000" stop-color="#000000" style="font-feature-settings:normal;font-variant-alternates:normal;font-variant-caps:normal;font-variant-east-asian:normal;font-variant-ligatures:normal;font-variant-numeric:normal;font-variant-position:normal;font-variation-settings:normal;inline-size:0;isolation:auto;mix-blend-mode:normal;shape-margin:0;shape-padding:0;text-decoration-color:#000000;text-decoration-line:none;text-decoration-style:solid;text-indent:0;text-orientation:mixed;text-transform:none;white-space:normal"/><path d="m70.4802 40.8073 3.99e-4 -2.48e-4c-1.17946-2.04289-3.36959-3.30859-5.72852-3.30846l-9.93014 1.34e-4 3.05563 5.2927h6.87452c0.476873 0 0.908047 0.247172 1.14648 0.660156l7.24492 12.5489 6.1101 0.0013-3.05525-5.29143z" color="#000000" color-rendering="auto" dominant-baseline="auto" fill="#2b2b2b" image-rendering="auto" solid-color="#000000" stop-color="#000000" style="font-feature-settings:normal;font-variant-alternates:normal;font-variant-caps:normal;font-variant-east-asian:normal;font-variant-ligatures:normal;font-variant-numeric:normal;font-variant-position:normal;font-variation-settings:normal;inline-size:0;isolation:auto;mix-blend-mode:normal;shape-margin:0;shape-padding:0;text-decoration-color:#000000;text-decoration-line:none;text-decoration-style:solid;text-indent:0;text-orientation:mixed;text-transform:none;white-space:normal"/></g></svg>
